<?xml version="1.0"?>
<svg width="276" height="160" xmlns="http://www.w3.org/2000/svg" xmlns:svg="http://www.w3.org/2000/svg" xmlns:se="http://svg-edit.googlecode.com" data-name="Layer 1">
 <g class="layer">
  <g id="svg_1">
   <g id="svg_2">
    <path d="m192.793965,129.523154l1.52,1.92l0.85,1.07l5.3,6.67s12.65,4.06 23.74,6.69c11.55,2.73 21.4,3.92 13.57,-2.61c-4.86,-4.05 -5.18,-10.83 -3.41,-18.1a74.9,74.9 0 0 1 6.36,-16.1q0.59,-1.14 1.17,-2.22a133.43,133.43 0 0 1 8.24,-13.31a236.63,236.63 0 0 0 -22.09,-13.57c-9.16,-4.74 -16.68,-6.81 -11.91,2.57c3.06,6 2.06,12.74 -0.8,19.19c-0.22,0.51 -0.46,1 -0.71,1.53a68.78,68.78 0 0 1 -9.44,13.89a109.62,109.62 0 0 1 -12.39,12.38z" fill="#efb7b9" id="svg_75"/>
    <path d="m212.793965,99.183154c5.78,4 14.6,10.33 22.13,10.33a36.91,36.91 0 0 0 5.8,-0.46a135.17,135.17 0 0 1 9.41,-15.53s-44,-30.67 -34,-11c3.3,6.54 0.05,9.75 -3.34,16.66z" id="svg_82" opacity="0.1"/>
    <path d="m198.923965,71.513154a35.94,35.94 0 0 0 16.41,30.2a33.06,33.06 0 0 0 3.52,2a36,36 0 1 0 -19.93,-32.22l0,0.02z" fill="#efb7b9" id="svg_83"/>
    <path d="m192.793965,129.523154l1.52,1.92l0.85,1.07l5.3,6.67s12.65,4.06 23.74,6.69c11.55,2.73 21.4,3.92 13.57,-2.61c-4.86,-4.05 -5.18,-10.83 -3.41,-18.1l-0.35,-0.45s0.35,6.74 -3.64,6.87c-5.38,0.17 -5.45,-1.64 -10.41,-3.73c-6.39,-2.7 -12.94,-7.21 -14.78,-10.72a109.62,109.62 0 0 1 -12.39,12.39z" fill="black" id="svg_89" opacity="0.1"/>
    <path d="m187.823965,134.973154a22.18,22.18 0 0 0 7.34,-2.46c0.86,-0.45 1.71,-0.95 2.54,-1.48a60.07,60.07 0 0 0 9.12,-7.5c4.6,-4.47 9.19,-9.35 11.09,-15.48a27.87,27.87 0 0 0 0.94,-4.32c1.14,-7.69 0.18,-16.18 5.68,-21.41a13.08,13.08 0 0 1 3.51,-2.37c7.8,-3.71 19.11,-1.31 24.93,-8c3.7,-4.24 3.61,-10.13 6.45,-14.74c1.24,-2 3.52,-3.73 5.54,-5.57a36,36 0 1 0 -49.63,50c-0.22,0.51 -0.46,1 -0.71,1.53c-6.87,14 -21.83,26.28 -21.83,26.28l1.52,1.92c-3.03,0.69 -5.42,1.8 -6.49,3.6z" fill="black" id="svg_99" opacity="0.1"/>
    <path d="m250.973965,66.973154c-6.77,7.76 -21,3.24 -28.45,10.35c-6.54,6.23 -3.94,17.1 -6.61,25.73c-1.9,6.13 -6.49,11 -11.09,15.48c-6.7,6.52 -15.27,13.14 -24.43,11.27c-5.43,-1.11 -10.75,-5.17 -16,-3.3c-2.61,0.94 -4.48,3.2 -6.43,5.19a44.31,44.31 0 0 1 -24.57,12.71a10.51,10.51 0 0 1 -5.57,-0.26c-2.8,-1.14 -4.31,-4.2 -6.86,-5.83c-5,-3.2 -11.42,0.08 -16.61,2.94a116.23,116.23 0 0 1 -95.48,6.87l8.09,-4c-1.72,-3.51 -6.37,-4.28 -9.33,-6.85c-6.1,-5.29 -2.51,-15.87 3.94,-20.72s14.8,-6.54 21.48,-11.07c1.36,-0.92 2.74,-2.14 2.87,-3.77a6,6 0 0 0 -1.09,-3.34c-3.56,-6.27 -7.5,-13 -6.7,-20.17c1.22,-11 13.23,-17.76 24.26,-18.53s21.95,2.55 33,2.74c4,0.07 8.19,-0.32 11.62,-2.39c4.79,-2.88 7.2,-8.37 10.11,-13.14a53.67,53.67 0 0 1 21.5,-19.82c10,-5.05 21.32,-6.82 31.72,-11c10.62,-4.26 20.28,-11 31.39,-13.71c16.13,-4 33.41,1.23 47.34,10.27c6.71,4.35 28.14,18.31 28,27.24c-0.11,5.3 -7,8.17 -9.61,12.33c-2.88,4.65 -2.79,10.54 -6.49,14.78z" fill="#965d7b" id="svg_100"/>
    <g id="svg_101" opacity="0.1">
     <path d="m105.713965,142.913153a6.09,6.09 0 0 1 1.09,3.34a3.38,3.38 0 0 1 -0.35,1.21c-2.94,-5.18 -6,-10.67 -6.49,-16.45c1.3,4.13 3.59,8.1 5.75,11.9z" id="svg_102" transform="translate(-71.86, -45.55)"/>
     <path d="m78.513965,181.813153c2.95,2.57 7.6,3.34 9.33,6.85l-2.86,1.42a32.17,32.17 0 0 1 -5.47,-3.27a9.41,9.41 0 0 1 -3.12,-7.77a8.59,8.59 0 0 0 2.12,2.77z" id="svg_103" transform="translate(-71.86, -45.55)"/>
     <path d="m175.233965,185.803153c5.19,-2.86 11.62,-6.14 16.61,-2.94c2.54,1.63 4.06,4.69 6.86,5.83a10.47,10.47 0 0 0 5.56,0.26a44.34,44.34 0 0 0 24.58,-12.71c1.94,-2 3.81,-4.25 6.43,-5.19c5.22,-1.87 10.54,2.19 16,3.3c9.16,1.87 17.72,-4.75 24.43,-11.27c4.6,-4.47 9.18,-9.35 11.08,-15.48c2.68,-8.63 0.08,-19.5 6.62,-25.73c7.47,-7.11 21.67,-2.59 28.45,-10.35c3.69,-4.24 3.61,-10.13 6.45,-14.74c2.4,-3.89 8.62,-6.65 9.5,-11.34a8.7,8.7 0 0 1 1.11,4c-0.11,5.3 -7,8.17 -9.61,12.33c-2.84,4.61 -2.76,10.5 -6.45,14.74c-6.78,7.76 -21,3.24 -28.45,10.35c-6.54,6.23 -3.94,17.1 -6.62,25.73c-1.9,6.13 -6.48,11 -11.08,15.48c-6.71,6.52 -15.27,13.14 -24.43,11.27c-5.44,-1.11 -10.76,-5.17 -16,-3.3c-2.62,0.94 -4.49,3.2 -6.43,5.19a44.34,44.34 0 0 1 -24.58,12.71a10.47,10.47 0 0 1 -5.56,-0.26c-2.8,-1.14 -4.32,-4.2 -6.86,-5.83c-5,-3.2 -11.42,0.08 -16.61,2.94a116.23,116.23 0 0 1 -95.48,6.87l5.59,-2.77a116.45,116.45 0 0 0 88.89,-9.09z" id="svg_104" transform="translate(-71.86, -45.55)"/>
    </g>
   </g>
  </g>
 </g>
</svg>